{"title":"A Man Who Was Superman/Superman ieotdeon sanai (2008)","uid":15731832,"size":4744991053,"categoryP":"video","categoryS":"movies","magnet":"?xt=urn:btih:42cf9ed61ef9689e5fb0b5d7eb9945d0bb6bebd7&amp;dn=A+Man+Who+Was+Superman%2FSuperman+ieotdeon+sanai+%282008%29&amp;tr=udp%3A%2F%2Ftracker.leechers-paradise.org%3A6969&amp;tr=udp%3A%2F%2Fzer0day.ch%3A1337&amp;tr=udp%3A%2F%2Fopen.demonii.com%3A1337&amp;tr=udp%3A%2F%2Ftracker.coppersurfer.tk%3A6969&amp;tr=udp%3A%2F%2Fexodus.desync.com%3A6969","seeders":0,"leechers":3,"uploader":"sturlun","files":5,"time":1472788803,"description":"A snobbish producer makes a documentary about the extraordinary behavior of her neighbor who believes himself to be Superman.\r\n\r\nDirector: Yoon-Chul Chung\r\nWriters: Yoon-Chul Chung, Jin-ho Yun\r\nIMDB: http://www.imdb.com/title/tt1119199/\r\n\r\n\r\n\r\nVideo\r\nID                             : 1\r\nFormat                         : AVC\r\nFormat/Info                    : Advanced Video Codec\r\nFormat profile                 :   \r\nCodec ID                       : V_MPEG4/ISO/AVC\r\nDuration                       : 1h 42mn\r\nBit rate                       : 5 723 Kbps\r\nWidth                          : 1 280 pixels\r\nHeight                         : 688 pixels\r\nDisplay aspect ratio           : 1.85:1\r\nFrame rate mode                : Constant\r\nFrame rate                     : 23.976 fps\r\nBit depth                      : 8 bits\r\nStream size                    : 4.01 GiB (91%)\r\nTitle                          : A.Man.Who.Was.Superman.HDTV720p.rip AVC / 1280x688 \r\nDefault                        : Yes\r\nForced                         : No\r\n\r\n\r\nAudio\r\nID                             : 2\r\nFormat                         : AC-3\r\nFormat/Info                    : Audio Coding 3\r\nMode extension                 : CM (complete main)\r\nFormat settings, Endianness    : Big\r\nMuxing mode                    : Header stripping\r\nCodec ID                       : A_AC3\r\nDuration                       : 1h 42mn\r\nBit rate mode                  : Constant\r\nBit rate                       : 448 Kbps\r\nChannel(s)                     : 6 channels\r\nChannel positions              : Front: L C R, Side: L R, LFE\r\nSampling rate                  : 48.0 KHz\r\nBit depth                      : 16 bits\r\nCompression mode               : Lossy\r\nStream size                    : 328 MiB (7%)\r\nTitle                          : AC3 / 48KHz / 6ch / 448 Kbps / kor\r\nLanguage                       : Korean\r\n\r\n\r\nText\r\nID                             : 3\r\nFormat                         : UTF-8\r\nCodec ID                       : S_TEXT/UTF8\r\nCodec ID/Info                  : UTF-8 Plain Text\r\nTitle                          : subtitle eng\r\nLanguage                       : English\r\nDefault                        : No\r\nForced                         : No\r\n\r\n\r\nSubtitlles: Portuguese, Spanish, French, English\r\n\r\n\r\nEnjoy!","torrent":{"xt":"urn:btih:42cf9ed61ef9689e5fb0b5d7eb9945d0bb6bebd7","amp;dn":"A+Man+Who+Was+Superman%2FSuperman+ieotdeon+sanai+%282008%29","amp;tr":["udp%3A%2F%2Ftracker.leechers-paradise.org%3A6969","udp%3A%2F%2Fzer0day.ch%3A1337","udp%3A%2F%2Fopen.demonii.com%3A1337","udp%3A%2F%2Ftracker.coppersurfer.tk%3A6969","udp%3A%2F%2Fexodus.desync.com%3A6969"],"infoHash":"42cf9ed61ef9689e5fb0b5d7eb9945d0bb6bebd7","infoHashBuffer":{"type":"Buffer","data":[66,207,158,214,30,249,104,158,95,176,181,215,235,153,69,208,187,107,235,215]},"announce":[],"urlList":[]}}